<svg xmlns="http://www.w3.org/2000/svg" viewBox="0 0 200 200" fill="none">
  <path
    d="M97 116C116.446 127.518 135.891 135.429 152 151.367C147.052 155.905 142.91 160.442 137.962 163.816C131.979 167.887 125.421 171.029 118.862 174.286C113.109 177.195 110.923 176.729 108.967 170.331C105.63 159.744 102.983 148.924 100.567 137.988C98.956 131.357 98.3808 124.493 97 116Z"
  />
  <path
    d="M106.627 92.7655C104.747 78.4759 102.278 64.3034 101.103 50.0137C100.633 44.0402 101.808 37.481 103.924 31.8589C106.98 23.7771 114.738 21.0832 122.143 24.3628C131.781 28.4623 137.541 37.2468 133.897 44.743C127.08 58.9155 119.322 72.6196 111.917 86.4407C110.741 88.6661 109.213 90.8917 107.92 93C107.45 92.8829 107.097 92.8826 106.627 92.7655Z"
  />
  <path
    d="M95.7294 90C81.06 85.6229 66.275 81.6011 51.721 76.8691C47.6782 75.5678 43.9819 72.6103 40.5167 69.7711C34.8568 65.2757 33.1242 59.0055 34.3948 51.7892C35.8964 43.5081 42.1339 39.0128 49.8729 41.852C54.8397 43.6265 59.922 46.3473 63.5027 50.0147C75.0535 62.3179 85.9113 75.2128 97 87.9892C96.6535 88.699 96.1915 89.2902 95.7294 90Z"
  />
  <path
    d="M93 103.711C74.8891 110.882 56.7781 118.285 38.5511 125.11C32.398 127.424 29.4956 125.226 29.1474 118.517C28.7991 111.461 29.1473 104.289 29.3795 97.2327C29.4956 93.2998 31.3531 91.4491 35.6487 92.1432C54.5723 95.2664 73.612 98.1584 92.6517 101.05C92.7678 102.091 92.8839 102.901 93 103.711Z"
  />
  <path
    d="M101.117 101.521C121.79 98.443 142.463 95.2511 163.019 92.1735C168.625 91.2616 170.844 93.9974 170.844 99.1268C170.844 104.826 171.195 110.525 170.844 116.225C170.727 117.593 168.041 120.214 166.99 119.986C145.733 115.085 124.593 109.955 103.336 104.826C102.518 104.598 101.818 104.028 101 103.572C101.117 102.888 101.117 102.205 101.117 101.521Z"
  />
  <path
    d="M80.992 172C69.984 165.728 60.1227 160.153 49 153.882C63.5627 139.945 77.208 127.053 92 113C89.248 133.441 86.496 152.14 80.992 172Z"
  />
</svg>
