<svg viewBox="0 100 183 484" xmlns="http://www.w3.org/2000/svg">
  <path
    fill-rule="evenodd"
    clip-rule="evenodd"
    d="M319.178 191.818L319.178 191.823L319.154 191.82L319.178 191.818ZM319.178 191.823C318.362 207.447 315.632 222.055 310.888 235.581C304.637 252.114 294.968 267.015 281.901 280.26C266.159 296.229 247.977 306.859 227.376 312.126C206.443 317.081 185.441 316.635 164.373 310.837C143.329 305.037 124.411 294.001 107.642 277.728C90.873 261.454 79.3306 242.931 73.0162 222.181C66.7002 201.407 65.8037 180.942 70.322 160.715C75.1784 140.155 85.3101 122.08 100.738 106.442C113.804 93.1968 129.094 83.091 146.634 76.1698C164.174 69.2487 183.264 66.1776 203.928 66.955L199.663 0.973247C172.906 0.955683 146.73 6.44754 121.112 17.4978C95.831 28.1925 73.4643 43.409 54.0343 63.122C29.6137 87.9269 13.5043 116.492 5.70764 148.841C-2.08508 180.524 -1.57207 212.253 7.22591 244.077C15.6898 275.566 32.5875 303.593 57.8967 328.183C83.2059 352.773 111.842 369.238 143.757 377.605C176.011 385.641 208.19 385.276 240.244 376.491C272.324 367.728 300.585 350.932 325.054 326.124C344.146 306.742 358.638 284.57 368.53 259.606C377.293 237.884 382.051 215.473 382.828 192.374C361.353 193.722 340.898 194.55 319.178 191.823Z"
  />
</svg>
