<svg xmlns="http://www.w3.org/2000/svg" fill="none" viewBox="0 0 78 61">
  <style>
		#text { fill: #161717 }
		#accent { fill: #FFD164}

		@media (prefers-color-scheme: dark) {
			#text { fill: #f5f5f5 }
			#accent { fill: #F07392}
    }
  </style>


  <g>
    <path
			id="accent"
      d="M48.21 31.28c-.118 2.253-.512 4.358-1.195 6.308-.901 2.382-2.295 4.53-4.178 6.439-2.269 2.301-4.89 3.833-7.858 4.592-3.017.714-6.044.65-9.08-.185-3.033-.836-5.76-2.427-8.176-4.772-2.417-2.345-4.08-5.015-4.99-8.005-.91-2.994-1.04-5.944-.389-8.86.7-2.962 2.16-5.567 4.384-7.82a18.966 18.966 0 0 1 6.614-4.364c2.528-.997 5.28-1.44 8.257-1.328l-.614-9.51c-3.856-.002-7.629.79-11.321 2.382a29.707 29.707 0 0 0-9.667 6.576c-3.52 3.575-5.841 7.692-6.965 12.354-1.123 4.566-1.05 9.139.219 13.725 1.22 4.538 3.655 8.578 7.302 12.122 3.648 3.543 7.775 5.916 12.375 7.122 4.648 1.158 9.286 1.106 13.905-.16 4.624-1.263 8.697-3.684 12.223-7.26 2.752-2.793 4.84-5.988 6.266-9.586a28.246 28.246 0 0 0 2.06-9.69c-3.096.195-6.044.314-9.176-.08h.003Z"
    />
    <path
			id="text"
      d="M48.741 24.739c.962-4.6 3.162-8.774 6.605-12.522 3.442-3.749 7.427-6.356 11.95-7.825 2.548-.793 3.84-.93 6.423-.973-.433 3.333-.115 6.476-.461 9.759-.82.16-1.636.372-2.45.649-2.984 1.01-5.615 2.756-7.893 5.236-2.28 2.481-3.603 4.246-4.664 7.189-.275.76-.65 2.709-.737 3.5-3.64.176-5.786.198-9.046-.098.059-1.617-.082-3.279.273-4.915Z"
    />
  </g>
</svg>
