<svg xmlns="http://www.w3.org/2000/svg" fill="none" viewBox="0 0 39 39">
  <g clip-path="url(#a)">
    <path
      fill="currentColor"
      d="m37.627 9.45-1.463 2.918s-.628-1.16-1.249-1.69c-.592-.506-1.357-.974-2.325-.874-.938.098-1.995.922-2.705 2.294-.806 1.561-1.08 3.143-1.087 4.888-.008 2.445.895 4.113.895 4.113s-.207-.776-.173-2.09c.023-.816.027-1.71.645-3.551.518-1.54 1.703-2.789 2.749-3.004.812-.168 1.33-.047 2.13.517.947.668 1.518 1.874 1.518 1.874l1.486-2.843-.421-2.553Zm-37.14.112L6.408 29.55h.245l3.701-12.388 3.703 12.388h.246l5.071-17.115.24-.405h4.17L20.329 18v1.185h.988c1.266 0 2.196.386 2.788 1.16.51.659.766 1.587.766 2.79 0 1.085-.24 2.015-.715 2.788-.478.773-1.062 1.159-1.753 1.159a2.48 2.48 0 0 1-1.716-.653c-.484-.436-.875-1.033-1.172-1.79l-2.023.839c.41 1.25 1.044 2.242 1.9 2.974.855.732 1.86 1.098 3.01 1.098 1.53 0 2.776-.617 3.74-1.85.962-1.234 1.443-2.756 1.443-4.566 0-1.464-.33-2.738-.986-3.825-.66-1.084-1.63-1.833-2.913-2.246l3.654-6.294V9.56h-9.704L14.06 21.73 10.481 9.561H7.889l1.184 3.973-2.42 8.193L3.079 9.562H.486Zm27.397 13.95s.366 1.186.595 1.69c.132.291.537 1.179 1.112 1.948.536.723 1.578 1.961 3.16 2.24 1.583.28 2.67-.43 2.939-.603.27-.172.837-.647 1.195-1.032.376-.4.73-.91.927-1.217.143-.225.377-.679.377-.679l-.379-1.971s-.656 1.175-1.065 1.627c-.41.453-1.142 1.247-2.045 1.646-.905.398-1.378.475-2.272.388-.893-.084-1.723-.601-2.014-.816-.29-.217-1.033-.852-1.453-1.446-.42-.59-1.077-1.775-1.077-1.775Z"
    />
  </g>
  <defs>
    <clipPath id="a"><path fill="#fff" d="M.486.649H38.19v37.703H.486z" /></clipPath>
  </defs>
</svg>
