<svg xmlns="http://www.w3.org/2000/svg" fill="none" viewBox="0 0 31 31">
  <g clip-path="url(#a)">
    <path
      fill="currentColor"
      d="m29.621 12.572-.04-.105L25.606 2.1a1.035 1.035 0 0 0-1.027-.65c-.217.01-.426.089-.597.223-.17.138-.293.325-.353.535l-2.683 8.207H10.085L7.403 2.207a1.043 1.043 0 0 0-.353-.537 1.064 1.064 0 0 0-1.216-.065c-.184.117-.327.29-.409.493L1.445 12.46l-.04.105a7.377 7.377 0 0 0 2.447 8.526l.014.011.036.026 6.052 4.532 2.995 2.266 1.823 1.377a1.227 1.227 0 0 0 1.484 0l1.824-1.377 2.994-2.266 6.088-4.56.015-.012a7.38 7.38 0 0 0 2.444-8.517Z"
    />
  </g>
  <!-- <defs>
    <clipPath id="a"><path fill="#fff" d="M.918.905h29.189v29.19H.918z" /></clipPath>
  </defs> -->
</svg>
