<svg xmlns="http://www.w3.org/2000/svg" fill="none" viewBox="0 0 42 43">
  <g>
    <path
      fill="currentColor"
      d="M35.752 13.48v15.817h2.844V13.48h-2.844Zm-35.184.224v2.992h2.993v-2.994l-2.993.002Zm16.851.606v10.43c0 .883.076 1.628.224 2.225.15.586.405 1.065.758 1.427.35.362.819.619 1.384.777.575.16 1.299.234 2.162.234h.372v-2.641c-.413 0-.767-.02-1.022-.064a1.158 1.158 0 0 1-.672-.298 1.194 1.194 0 0 1-.298-.65 6.891 6.891 0 0 1-.063-1.044v-3.759h2.055v-2.44h-2.055V14.31h-2.845Zm-6.039 3.984c-.682 0-1.31.137-1.864.415a4.038 4.038 0 0 0-1.417 1.15l-.15.202v-1.554H5.149v10.78h2.824v-5.538c.031-1.014.276-1.758.746-2.239a2.435 2.435 0 0 1 1.799-.766c.82 0 1.449.256 1.864.746.405.489.619 1.182.619 2.067v5.727h2.865v-6.113c.01-1.533-.395-2.748-1.182-3.6-.79-.854-1.895-1.28-3.303-1.28v.003Zm17.342.01a5.605 5.605 0 0 0-3.973 1.63c-.5.5-.905 1.097-1.193 1.78a5.418 5.418 0 0 0-.437 2.193c0 .779.137 1.513.415 2.195.277.68.672 1.279 1.161 1.778.49.5 1.098.907 1.8 1.194a5.89 5.89 0 0 0 2.313.448c2.407 0 3.897-1.097 4.793-2.119l-2.045-1.558c-.427.512-1.449 1.205-2.727 1.205-.8 0-1.46-.181-1.961-.553-.502-.37-.862-.9-1.022-1.503l-.033-.096h8.469v-1.012c0-.777-.138-1.502-.405-2.183a5.846 5.846 0 0 0-1.139-1.78 5.192 5.192 0 0 0-1.757-1.192 5.765 5.765 0 0 0-2.26-.427Zm-28.08.203v10.78h2.845v-10.78H.642Zm28.047 2.216c1.95 0 2.867 1.373 2.867 2.162l-5.72.01c0-.788.904-2.162 2.853-2.172Zm12.187 6.571a1.044 1.044 0 1 0 0 2.088 1.044 1.044 0 0 0 0-2.088Zm-.014.181h.003a.861.861 0 1 1-.003 0Zm-.402.267v1.205h.224v-.491h.16l.299.49h.234l-.31-.511a.329.329 0 0 0 .203-.096.317.317 0 0 0 .086-.235c0-.117-.034-.201-.108-.265-.064-.066-.181-.097-.319-.097h-.469Zm.224.171h.266c.032 0 .063.01.096.02a.11.11 0 0 1 .064.054c.022.022.02.054.02.097a.213.213 0 0 1-.02.094.286.286 0 0 1-.064.054c-.033.01-.064.022-.096.022h-.266v-.341Z"
    />
  </g>
</svg>
