<svg xmlns="http://www.w3.org/2000/svg" fill="none" viewBox="0 0 30 31">
  <g clip-path="url(#a)">
    <path
      fill="currentColor"
      d="M.379.905v29.19h29.19V.905H.378Zm12.32 8.156c1.801 0 3.476.859 4.077 2.705.687-1.675 2.104-2.705 4.078-2.705 2.274 0 4.336 1.375 4.336 4.335v5.795h1.717v2.749h-5.28v-7.127c0-2.19-.73-3.004-2.146-3.004-1.718 0-2.403 1.245-2.403 2.961v4.379h1.673v2.747h-5.28v-7.083c0-2.19-.73-3.004-2.146-3.004-1.717 0-2.403 1.245-2.403 2.961v4.379h2.403v2.747H3.598V19.15h1.675v-7.084H3.598V9.32H8.88v1.888c.773-1.332 2.06-2.146 3.82-2.146Z"
    />
  </g>
</svg>
