<svg xmlns="http://www.w3.org/2000/svg" fill="none" viewBox="0 0 30 31">
  <g clip-path="url(#a)">
    <path
      fill="currentColor"
      d="M14.892.905a14.595 14.595 0 1 0 0 29.19 14.595 14.595 0 0 0 0-29.19Zm.565 7.071a5.546 5.546 0 0 1 3.352 1.01c1.478 1.077 1.782 2.257 1.782 3.04.005.248-.03.494-.105.73a3.369 3.369 0 0 1-2.803 2.318c-.264.038-.53.06-.796.067-1.216 0-1.617-.498-1.617-1.058 0-.759.73-1.659 1.259-1.659.066 0 .131.019.187.055.14.076.297.115.456.113.044.01.09.01.134 0a.669.669 0 0 0 .626-.679c0-.669-.76-1.52-2.432-1.52a6.428 6.428 0 0 0-1.886.297 5.01 5.01 0 0 0-2.754 2.134 4.866 4.866 0 0 0-.833 2.737c-.006.83.203 1.647.608 2.371a5.151 5.151 0 0 0 4.488 2.506h.291c2.433-.134 2.992-1.326 3.535-1.557a1.86 1.86 0 0 1 .363-.079c.396 0 .906.2 1.26 1.046a.887.887 0 0 1 .084.365c0 1.392-3.247 2.651-5.132 2.748h-.426a7.759 7.759 0 0 1-6.75-3.812 7.175 7.175 0 0 1-.936-3.576A7.4 7.4 0 0 1 8.67 11.45a7.535 7.535 0 0 1 4.116-3.04 8.872 8.872 0 0 1 2.67-.434Z"
    />
  </g>
  <!-- <defs>
    <clipPath id="a"><path fill="#fff" d="M.297.905h29.189v29.19H.296z" /></clipPath>
  </defs> -->
</svg>
