<svg xmlns="http://www.w3.org/2000/svg" fill="none" viewBox="0 0 30 31">
  <g clip-path="url(#a)">
    <path
      fill="currentColor"
      d="M14.692 3.297c-.528 0-1.058.104-1.556.312L2.27 8.102c-.612.253-.596 1.104.015 1.357l10.924 4.327a3.973 3.973 0 0 0 2.984 0L27.118 9.46c.612-.238.612-1.104.015-1.357L16.239 3.609a3.959 3.959 0 0 0-1.547-.312Zm13.875 7.406a.717.717 0 0 0-.27.055L16.12 15.473a.744.744 0 0 0-.462.686v10.82a.73.73 0 0 0 .999.671l12.177-4.731a.709.709 0 0 0 .463-.67v-10.82a.73.73 0 0 0-.73-.725ZM.93 10.751a.783.783 0 0 0-.584.23c-.134.136-.239.299-.239.493v10.162c0 .537.627.896 1.105.657l7.625-3.656.374-.18 3.61-1.746c.568-.267.524-1.104-.073-1.328L1.18 10.803a.694.694 0 0 0-.251-.054v.002Z"
    />
  </g>
  <!-- <defs>
    <clipPath id="a"><path fill="#fff" d="M.107.905h29.19v29.19H.106z" /></clipPath>
  </defs> -->
</svg>
