<svg xmlns="http://www.w3.org/2000/svg" preserveAspectRatio="none" viewBox="0 0 200 200">
  <path
    d="M84.1666 179.926C76.2587 178.287 68.1454 178.799 60.2375 177.774C46.9893 176.135 37.4381 168.041 34.9733 154.823C31.6869 136.893 29.9411 118.86 29.2222 100.622C28.606 84.9453 29.1194 69.7812 32.7139 54.5146C37.6435 33.3053 57.3619 20.0879 75.7452 18.6534C87.5557 17.7313 99.3661 17.5262 110.971 19.7804C116.722 20.9074 122.576 22.4444 127.917 25.2108C131.922 27.3625 136.441 26.7478 140.754 28.8995C148.97 32.8954 154.516 39.0429 158.727 46.4201C168.791 64.1457 171.256 83.306 170.024 103.491C169.51 111.892 168.586 120.499 170.537 129.106C171.667 134.331 170.537 140.376 169.202 145.807C166.326 156.975 161.705 167.631 152.462 175.213C149.894 177.262 145.786 177.57 142.397 178.492C126.992 182.385 111.382 182.385 95.669 181.565C93.7177 181.463 92.0745 180.643 90.3286 180.131C88.2746 175.623 86.2206 179.106 84.1666 179.926Z"
  />
</svg>
