<svg
  xmlns="http://www.w3.org/2000/svg"
  fill="none"
  viewBox="0 0 46 45"
  width="1em"
  height="1em"
>
  <g clip-path="url(#cisco)">
    <path
      fill="currentColor"
      d="M31.539 34.07v-2.082l-.042.018a3.856 3.856 0 0 1-1.502.38 2.224 2.224 0 0 1-1.51-.444 1.947 1.947 0 0 1-.66-.933 2.268 2.268 0 0 1-.044-1.25c.098-.423.334-.8.67-1.068.3-.251.665-.409 1.053-.453a3.469 3.469 0 0 1 1.99.37l.045.025V26.54l-.096-.027a5.367 5.367 0 0 0-1.896-.247 4.388 4.388 0 0 0-1.693.386 3.877 3.877 0 0 0-1.385 1.07 4.164 4.164 0 0 0-.075 5.073 3.96 3.96 0 0 0 2.203 1.417c.92.225 1.886.192 2.788-.097l.154-.043Zm-20.616 0v-2.082l-.041.018a3.856 3.856 0 0 1-1.502.38 2.219 2.219 0 0 1-1.511-.444 1.932 1.932 0 0 1-.659-.933 2.254 2.254 0 0 1-.045-1.25c.098-.423.332-.8.67-1.068.3-.251.665-.409 1.054-.453a3.469 3.469 0 0 1 1.989.37l.045.025V26.54l-.096-.027a5.366 5.366 0 0 0-1.895-.247 4.394 4.394 0 0 0-1.693.386 3.9 3.9 0 0 0-1.388 1.07 4.17 4.17 0 0 0-.077 5.073c.553.71 1.33 1.209 2.205 1.417.92.225 1.885.192 2.788-.097l.156-.043Zm7.357-1.728-.007 1.794.131.023c.413.077.827.13 1.245.16.366.035.733.04 1.1.022.352-.027.698-.092 1.034-.195.394-.113.76-.306 1.07-.572.282-.241.496-.55.625-.896a2.456 2.456 0 0 0-.013-1.8c-.121-.3-.313-.567-.559-.777a2.366 2.366 0 0 0-.821-.478l-1.354-.502a.727.727 0 0 1-.37-.353.46.46 0 0 1 .016-.41.717.717 0 0 1 .289-.267c.151-.073.314-.12.481-.139.287-.04.578-.039.863.01.337.037.671.096 1 .18l.07.015V26.5l-.129-.028a8.917 8.917 0 0 0-1.018-.182 5.332 5.332 0 0 0-1.339-.005 2.9 2.9 0 0 0-1.54.618c-.3.237-.526.55-.657.908a2.49 2.49 0 0 0 0 1.685c.101.272.262.514.472.715.182.174.388.324.613.442.295.158.608.28.932.366.107.032.214.066.319.101l.16.058.044.02c.158.055.304.145.424.262a.74.74 0 0 1 .19.283.61.61 0 0 1 .001.302.636.636 0 0 1-.31.37 1.607 1.607 0 0 1-.517.162 3.818 3.818 0 0 1-.8.04 9.76 9.76 0 0 1-1.044-.14c-.18-.038-.36-.08-.539-.125l-.061-.011Zm-4.64 1.866h1.969v-7.814h-1.97v7.814Zm22.804-5.505a2.054 2.054 0 0 1 2.595 3.185l-.032.026a2.055 2.055 0 0 1-2.563-3.212Zm-2.86 1.6a4.113 4.113 0 0 0 4.999 3.951 4.011 4.011 0 0 0 1.314-7.381 4.138 4.138 0 0 0-6.313 3.43ZM43.97 20.116a.975.975 0 0 0 1.948 0v-2.166a.975.975 0 0 0-1.948 0v2.166Zm-5.333 0a.979.979 0 0 0 1.952 0v-4.854a.977.977 0 0 0-1.95 0l-.002 4.854Zm-5.41 1.956a.977.977 0 0 0 1.947 0V11.569a.975.975 0 0 0-1.948 0V22.07Zm-5.322-1.956a.977.977 0 0 0 1.95 0v-4.854a.975.975 0 0 0-1.948 0v4.854m-5.438 0a.98.98 0 0 0 1.948 0v-2.166a.975.975 0 0 0-1.948 0v2.166Zm-5.381 0a.975.975 0 0 0 1.948 0v-4.854a.975.975 0 0 0-1.948 0v4.854Zm-5.413 1.956a.975.975 0 0 0 1.948 0V11.569a.975.975 0 0 0-1.948 0V22.07ZM6.31 20.115a.979.979 0 0 0 1.95 0v-4.854a.975.975 0 0 0-1.948 0v4.854m-5.394 0a.977.977 0 0 0 1.948 0v-2.166a.975.975 0 0 0-1.948 0v2.166Z"
    />
  </g>
  <defs>
    <clipPath id="cisco"><path fill="#fff" d="M.918 0h45v45h-45z" /></clipPath>
  </defs>
</svg>
