<svg
  xmlns="http://www.w3.org/2000/svg"
  fill="none"
  viewBox="0 0 30 31"
  width="1em"
  height="1em"
>
  <g>
    <path
      fill="currentColor"
      d="M15.178 14.187v3.989h9.535c-.292 2.238-1.037 3.876-2.173 5.026-1.395 1.395-3.567 2.92-7.362 2.92-5.87 0-10.46-4.735-10.46-10.606 0-5.87 4.59-10.606 10.46-10.606 3.162 0 5.482 1.25 7.184 2.855l2.806-2.806C22.8 2.657 19.621.905 15.178.905 7.135.905.373 7.457.373 15.5c0 8.043 6.762 14.595 14.805 14.595 4.346 0 7.622-1.427 10.183-4.087 2.627-2.627 3.454-6.34 3.454-9.325 0-.924-.064-1.784-.21-2.496H15.178Z"
    />
  </g>
</svg>
